<svg fill="#000000" xmlns="http://www.w3.org/2000/svg"  viewBox="0 0 50 50" width="50px" height="50px"><path d="M7 42c0 0 10.547-20 15.941-20 .045 0 .089.002.134.005C28.685 22.4 39 42 39 42L23 1 7 42zM23.216 20.01C23.125 20.003 23.034 20 22.941 20c-1.493 0-3.572.644-7.015 4.628L23 6.501l7.127 18.262C27.759 22.091 25.34 20.159 23.216 20.01zM26.073 3.374l11.469 29.39C40.628 37.497 43 42 43 42L27 1 26.073 3.374z"/><path d="M14.279 33.598L11 42c0 0 6.76-12.812 12.224-17.924-.097-.026-.201-.07-.289-.076C21.447 24 17.993 27.964 14.279 33.598zM38.731 25.56L42.172 29 40.663 30.509 41.457 32.543 45 29 36.921 20.921zM8.543 32.543L9.337 30.509 7.828 29 11.269 25.56 13.079 20.921 5 29zM25 46.172l-8.965-8.965c-.375.624-.727 1.219-1.052 1.777L25 49l10.031-10.031c-.347-.597-.698-1.188-1.053-1.775L25 46.172z"/></svg>