<svg width="98" height="20" viewBox="0 0 98 20" fill="none" xmlns="http://www.w3.org/2000/svg">
<path d="M14.0125 14.6324C14.0125 16.1193 14.2121 16.8627 14.6114 16.8627C14.8509 16.8627 15.1463 16.7075 15.4976 16.3971C15.8489 16.0866 16.2003 15.7516 16.5516 15.3922C16.9029 15.0163 17.2222 14.6732 17.5097 14.3627C17.8131 14.0523 18.0207 13.8971 18.1325 13.8971C18.356 13.8971 18.4678 14.1748 18.4678 14.7304C18.4678 15.8742 17.9009 16.9853 16.7671 18.0637C15.6493 19.1422 14.4517 19.6814 13.1742 19.6814C12.3757 19.6977 11.8328 19.3464 11.5454 18.6275C11.3218 18.0556 11.21 17.1405 11.21 15.8824C10.1401 18.415 8.55124 19.6814 6.44337 19.6814C5.02216 19.6814 3.88838 19.3219 3.04204 18.6029C2.21167 17.8676 1.79648 16.7157 1.79648 15.1471C1.79648 14.7712 1.99609 13.7827 2.39531 12.1814C2.81049 10.5637 3.13785 9.2402 3.37738 8.21078C3.61691 7.16503 3.73668 6.33987 3.73668 5.73529C3.73668 4.41176 3.40932 3.75 2.7546 3.75C2.53104 3.75 2.32345 3.81536 2.13182 3.94608C1.95617 4.0768 1.77253 4.21568 1.5809 4.36274C1.40525 4.5098 1.22161 4.64869 1.02998 4.77941C0.838357 4.91013 0.614795 4.97549 0.359296 4.97549C0.119765 4.97549 0 4.7549 0 4.31372C0 3.41503 0.407202 2.67974 1.22161 2.10784C2.00407 1.51961 2.93824 1.22549 4.02411 1.22549C5.10999 1.22549 5.92439 1.68301 6.46733 2.59804C6.88251 3.26797 7.0901 4.02778 7.0901 4.87745C7.0901 5.71078 7.00228 6.52778 6.82662 7.32843C6.65097 8.11274 6.45934 8.92157 6.25175 9.7549C6.06012 10.5882 5.87648 11.4379 5.70083 12.3039C5.52517 13.1536 5.43734 13.8562 5.43734 14.4118C5.43734 14.951 5.4613 15.3105 5.5092 15.4902C5.73276 16.2092 6.2757 16.5686 7.13801 16.5686C8.25582 16.5686 9.22991 15.8497 10.0603 14.4118C10.7629 13.2026 11.2579 11.732 11.5454 10L11.6891 8.89706L11.5933 3.77451C11.5933 3.02288 11.9127 2.40196 12.5514 1.91176C13.1901 1.42157 13.8608 1.18464 14.5635 1.20098C14.8509 1.20098 15.0345 1.42157 15.1144 1.86274C15.1942 2.28758 15.2341 2.76144 15.2341 3.28431C15.2341 3.80719 15.2022 4.31373 15.1383 4.80392C15.0745 5.27778 14.9946 5.83333 14.8988 6.47059C14.819 7.0915 14.7231 7.76144 14.6114 8.48039C14.1962 11.4379 13.9966 13.4886 14.0125 14.6324Z" fill="white"/>
<path d="M20.4656 7.37745C21.0405 7.37745 21.5834 7.94118 22.0944 9.06863C22.845 8.26797 23.7712 7.86765 24.873 7.86765C25.9908 7.86765 26.8292 8.12091 27.3881 8.62745C27.947 9.11765 28.2264 9.82026 28.2264 10.7353C28.2264 11.634 28.1067 12.549 27.8671 13.4804C27.6436 14.4118 27.4759 15.0817 27.3641 15.4902C27.2683 15.8824 27.2204 16.2092 27.2204 16.4706C27.2204 16.732 27.3082 16.8627 27.4839 16.8627C27.7234 16.8627 28.0188 16.7075 28.3701 16.3971C28.7215 16.0866 29.0728 15.7516 29.4241 15.3922C29.7754 15.0163 30.0948 14.6732 30.3822 14.3627C30.6856 14.0523 30.8932 13.8971 31.005 13.8971C31.2285 13.8971 31.3403 14.1748 31.3403 14.7304C31.3403 15.8742 30.7894 16.9771 29.6876 18.0392C27.8352 19.1503 26.6535 19.7059 26.1425 19.7059C26.0946 19.7059 26.0627 19.6977 26.0467 19.6814C24.7692 19.6814 24.1305 18.6356 24.1305 16.5441C24.1305 15.6454 24.2103 14.8203 24.37 14.0686C24.5456 13.317 24.6734 12.7696 24.7532 12.4265C24.8331 12.0833 24.873 11.732 24.873 11.3725C24.873 10.7843 24.5377 10.4902 23.867 10.4902C23.2123 10.4902 22.5815 10.9967 21.9747 12.0098C21.3838 13.0065 20.9846 14.0441 20.777 15.1225V15.2941C20.777 15.8497 20.8569 16.4216 21.0166 17.0098C21.1922 17.598 21.28 18.0065 21.28 18.2353C21.28 18.7908 20.6014 19.3382 19.244 19.8775C19.0364 19.9592 18.8528 20 18.6931 20C18.2939 20 18.0144 19.7876 17.8548 19.3627C17.711 18.9379 17.6392 18.2761 17.6392 17.3775C17.6392 15.0572 17.727 13.3824 17.9027 12.3529C18.1422 10.817 18.6851 9.38725 19.5315 8.06372C19.8189 7.60621 20.1303 7.37745 20.4656 7.37745Z" fill="white"/>
<path d="M33.0197 19.6814C31.4228 19.6814 30.6244 18.1536 30.6244 15.098C30.6244 13.4314 30.824 11.9199 31.2232 10.5637C31.846 8.47222 32.5486 7.42647 33.3311 7.42647C33.7941 7.42647 34.1614 7.7451 34.4329 8.38235C34.6565 8.87255 34.7602 9.35457 34.7443 9.82843C34.7443 10.482 34.5527 11.634 34.1694 13.2843C33.8021 14.7222 33.6185 15.6127 33.6185 15.9559C33.6185 16.299 33.6983 16.5359 33.858 16.6667C34.0337 16.7974 34.2333 16.8627 34.4568 16.8627C34.6964 16.8627 34.9918 16.7075 35.3431 16.3971C35.6944 16.0866 36.0457 15.7516 36.397 15.3922C36.7484 15.0163 37.0677 14.6732 37.3552 14.3627C37.6586 14.0523 37.8662 13.8971 37.9779 13.8971C38.2015 13.8971 38.3133 14.1748 38.3133 14.7304C38.3133 15.8742 37.7464 16.9935 36.6126 18.0882C35.4948 19.1667 34.2972 19.6977 33.0197 19.6814ZM34.0017 5.44118C33.5706 4.78758 33.355 4.08497 33.355 3.33333C33.355 2.5817 33.4668 1.96078 33.6903 1.47059C33.9299 0.964052 34.1534 0.596405 34.361 0.367647C34.5686 0.122549 34.8082 0 35.0796 0C35.5267 0 35.9339 0.343137 36.3012 1.02941C36.6685 1.69935 36.8521 2.26307 36.8521 2.72059C36.8521 3.57026 36.5567 4.2402 35.9659 4.73039C35.391 5.20425 34.7363 5.44118 34.0017 5.44118Z" fill="white"/>
<path d="M49.1404 15.6373C49.5556 15.3268 49.9309 14.951 50.2662 14.5098C50.6016 14.0523 50.881 13.8235 51.1046 13.8235C51.3441 13.8235 51.4639 14.183 51.4639 14.902C51.4639 15.6046 51.2643 16.2745 50.8651 16.9118C50.4818 17.5327 49.9708 18.0556 49.3321 18.4804C48.0226 19.3627 46.4737 19.8039 44.6852 19.8039C42.5134 19.8039 40.8287 19.2484 39.6311 18.1373C38.4334 17.0261 37.8346 15.482 37.8346 13.5049C37.8346 11.0703 38.4095 8.75817 39.5592 6.56863C39.9425 5.84967 40.3736 5.18791 40.8527 4.58333C40.4854 4.14216 40.19 3.68464 39.9664 3.21078C39.7588 2.72059 39.655 2.35294 39.655 2.10784C39.655 1.66667 39.8147 1.44608 40.1341 1.44608C40.3577 1.46242 40.6132 1.61765 40.9006 1.91176L41.6431 2.64706C41.8348 2.84314 42.0344 3.00654 42.242 3.13725C43.8229 1.76471 45.5235 1.07843 47.344 1.07843C49.1804 1.07843 50.37 1.60131 50.913 2.64706C51.1046 3.03922 51.2004 3.52124 51.2004 4.09314C51.2004 4.95915 50.8331 5.68627 50.0986 6.27451C49.364 6.86274 48.3739 7.15686 47.1284 7.15686C45.8988 7.15686 44.6213 6.89542 43.2959 6.37255C42.1621 8.34967 41.5952 10.4167 41.5952 12.5735C41.5952 15.5637 42.7609 17.0588 45.0924 17.0588C46.5296 17.0588 47.8789 16.585 49.1404 15.6373ZM44.4456 4.85294C45.26 5.13072 46.1463 5.26961 47.1044 5.26961C48.0626 5.26961 48.5416 5 48.5416 4.46078C48.5416 3.82353 48.1504 3.5049 47.3679 3.5049C46.298 3.5049 45.3239 3.95425 44.4456 4.85294Z" fill="white"/>
<path d="M55.6036 19.6814C53.3201 19.6977 51.7632 18.8235 50.9328 17.0588C50.6454 16.4379 50.5016 15.6618 50.5016 14.7304C50.5016 13.7827 50.5815 12.7778 50.7412 11.7157C51.0606 9.5915 51.6753 7.63072 52.5856 5.83333C53.0487 4.9183 53.5676 4.13399 54.1425 3.48039C55.404 2.04248 56.8093 1.3317 58.3582 1.34804C59.0449 1.34804 59.5799 1.54412 59.9631 1.93627C60.3623 2.31209 60.5619 2.85948 60.5619 3.57843C60.5619 4.29739 60.3543 5.02451 59.9392 5.7598C59.524 6.47876 58.989 7.23039 58.3343 8.0147C57.6955 8.78268 56.9849 9.5915 56.2025 10.4412C55.42 11.2908 54.6535 12.2141 53.903 13.2108V14.1912C53.903 15.1062 54.0946 15.7761 54.4779 16.201C54.8611 16.6258 55.3082 16.8382 55.8192 16.8382C57.1925 16.8382 58.4062 16.1438 59.4601 14.7549C59.8912 14.183 60.2186 13.8971 60.4422 13.8971C60.6657 13.8971 60.7775 14.1748 60.7775 14.7304C60.7775 15.2859 60.6258 15.8578 60.3224 16.4461C60.035 17.018 59.6517 17.549 59.1727 18.0392C58.6936 18.5131 58.1427 18.9052 57.5199 19.2157C56.8971 19.5261 56.2584 19.6814 55.6036 19.6814ZM56.8971 6.51961C57.2325 6.09477 57.4959 5.71078 57.6876 5.36765C57.8792 5.02451 57.975 4.6732 57.975 4.31372C57.975 3.93791 57.8473 3.75 57.5918 3.75C57.0328 3.75 56.4101 4.33823 55.7234 5.51471C55.0527 6.69118 54.5497 8.23529 54.2144 10.1471C54.7573 9.29739 55.2523 8.5866 55.6995 8.0147C56.1626 7.44281 56.5618 6.94444 56.8971 6.51961Z" fill="white"/>
<path d="M62.2358 19.6814C60.639 19.6814 59.8405 18.1536 59.8405 15.098C59.8405 13.4314 60.0401 11.9199 60.4394 10.5637C61.0621 8.47222 61.7648 7.42647 62.5472 7.42647C63.0103 7.42647 63.3776 7.7451 63.6491 8.38235C63.8726 8.87255 63.9764 9.35457 63.9605 9.82843C63.9605 10.482 63.7688 11.634 63.3856 13.2843C63.0183 14.7222 62.8347 15.6127 62.8347 15.9559C62.8347 16.299 62.9145 16.5359 63.0742 16.6667C63.2499 16.7974 63.4495 16.8627 63.673 16.8627C63.9126 16.8627 64.208 16.7075 64.5593 16.3971C64.9106 16.0866 65.2619 15.7516 65.6132 15.3922C65.9645 15.0163 66.2839 14.6732 66.5713 14.3627C66.8747 14.0523 67.0823 13.8971 67.1941 13.8971C67.4177 13.8971 67.5295 14.1748 67.5295 14.7304C67.5295 15.8742 66.9626 16.9935 65.8288 18.0882C64.711 19.1667 63.5133 19.6977 62.2358 19.6814ZM63.2179 5.44118C62.7868 4.78758 62.5712 4.08497 62.5712 3.33333C62.5712 2.5817 62.683 1.96078 62.9065 1.47059C63.146 0.964052 63.3696 0.596405 63.5772 0.367647C63.7848 0.122549 64.0243 0 64.2958 0C64.7429 0 65.1501 0.343137 65.5174 1.02941C65.8847 1.69935 66.0683 2.26307 66.0683 2.72059C66.0683 3.57026 65.7729 4.2402 65.1821 4.73039C64.6072 5.20425 63.9525 5.44118 63.2179 5.44118Z" fill="white"/>
<path d="M71.9132 16.9363C73.1588 16.9363 74.3644 16.4297 75.5302 15.4167C75.9613 15.0408 76.3126 14.6977 76.5841 14.3873C76.8556 14.0605 77.0631 13.8971 77.2069 13.8971C77.4304 13.8971 77.5422 14.1258 77.5422 14.5833C77.5422 15.0408 77.4224 15.5556 77.1829 16.1275C76.9434 16.683 76.5442 17.2304 75.9853 17.7696C74.612 19.0931 72.7277 19.7549 70.3323 19.7549C68.4321 19.7549 67.1386 19.0523 66.452 17.6471C66.2124 17.1569 66.0927 16.4542 66.0927 15.5392C66.0927 14.6242 66.2683 13.6765 66.6196 12.6961C66.9709 11.6993 67.434 10.8415 68.0089 10.1225C68.5997 9.40359 69.2784 8.84804 70.0449 8.45588C70.8114 8.04739 71.6258 7.84314 72.4881 7.84314C73.3664 7.84314 74.0371 8.06373 74.5002 8.5049C74.9792 8.94608 75.2188 9.51797 75.2188 10.2206C75.2188 10.9232 75.0431 11.5033 74.6918 11.9608C74.3565 12.402 73.9173 12.7778 73.3744 13.0882C72.8314 13.3824 72.2246 13.652 71.5539 13.8971C70.8992 14.1258 70.2525 14.3873 69.6138 14.6814V15.2941C69.6297 15.8824 69.8693 16.299 70.3323 16.5441C70.7954 16.7892 71.3224 16.9199 71.9132 16.9363ZM71.506 10.0245C70.6757 10.0245 70.1008 11.0131 69.7814 12.9902C70.1168 12.7614 70.4282 12.5572 70.7156 12.3775C71.019 12.1977 71.2825 12.0261 71.506 11.8627C71.9851 11.5033 72.2326 11.0948 72.2486 10.6373C72.2486 10.2288 72.0011 10.0245 71.506 10.0245Z" fill="white"/>
<path d="M79.5296 7.37745C80.1044 7.37745 80.6474 7.94118 81.1584 9.06863C81.9089 8.26797 82.8351 7.86765 83.9369 7.86765C85.0547 7.86765 85.8931 8.12091 86.452 8.62745C87.0109 9.11765 87.2904 9.82026 87.2904 10.7353C87.2904 11.634 87.1706 12.549 86.9311 13.4804C86.7075 14.4118 86.5398 15.0817 86.428 15.4902C86.3322 15.8824 86.2843 16.2092 86.2843 16.4706C86.2843 16.732 86.3722 16.8627 86.5478 16.8627C86.7873 16.8627 87.0828 16.7075 87.4341 16.3971C87.7854 16.0866 88.1367 15.7516 88.488 15.3922C88.8393 15.0163 89.1587 14.6732 89.4461 14.3627C89.7495 14.0523 89.9571 13.8971 90.0689 13.8971C90.2925 13.8971 90.4043 14.1748 90.4043 14.7304C90.4043 15.8742 89.8533 16.9771 88.7515 18.0392C86.8991 19.1503 85.7174 19.7059 85.2064 19.7059C85.1585 19.7059 85.1266 19.6977 85.1106 19.6814C83.8331 19.6814 83.1944 18.6356 83.1944 16.5441C83.1944 15.6454 83.2742 14.8203 83.4339 14.0686C83.6096 13.317 83.7373 12.7696 83.8172 12.4265C83.897 12.0833 83.9369 11.732 83.9369 11.3725C83.9369 10.7843 83.6016 10.4902 82.9309 10.4902C82.2762 10.4902 81.6454 10.9967 81.0386 12.0098C80.4478 13.0065 80.0486 14.0441 79.841 15.1225V15.2941C79.841 15.8497 79.9208 16.4216 80.0805 17.0098C80.2561 17.598 80.344 18.0065 80.344 18.2353C80.344 18.7908 79.6653 19.3382 78.308 19.8775C78.1004 19.9592 77.9167 20 77.757 20C77.3578 20 77.0784 19.7876 76.9187 19.3627C76.775 18.9379 76.7031 18.2761 76.7031 17.3775C76.7031 15.0572 76.7909 13.3824 76.9666 12.3529C77.2061 10.817 77.7491 9.38725 78.5954 8.06372C78.8828 7.60621 79.1942 7.37745 79.5296 7.37745Z" fill="white"/>
<path d="M90.2632 18.2843C90.0875 17.8431 89.9597 17.3366 89.8799 16.7647C89.8001 16.1765 89.7601 15.3595 89.7601 14.3137C89.7601 13.268 89.9518 11.8546 90.335 10.0735H89.2571C89.0655 10.0735 88.9697 9.99183 88.9697 9.82843C88.9697 9.43627 89.0016 9.11765 89.0655 8.87255C89.1453 8.61111 89.321 8.31699 89.5925 7.99019H90.1673C90.3909 7.99019 90.6304 7.98203 90.8859 7.96569C91.6524 5.44935 92.4349 4.19118 93.2333 4.19118C93.8721 4.20752 94.3192 4.62418 94.5747 5.44118C94.6386 5.66993 94.7104 5.91503 94.7903 6.17647L93.8082 7.94118C94.926 7.97386 95.6286 7.99019 95.9161 7.99019C96.2195 7.99019 96.3792 8.02287 96.3951 8.08823C96.4271 8.13725 96.443 8.21895 96.443 8.33333C96.443 8.62745 96.3712 8.9951 96.2275 9.43627C96.0997 9.87745 95.948 10.0899 95.7724 10.0735L93.3771 9.95098C93.0417 11.9444 92.874 13.5948 92.874 14.902C92.874 16.2092 93.0577 16.8627 93.425 16.8627C93.7284 16.8627 94.2793 16.6095 95.0777 16.1029C95.8762 15.5801 96.451 15.0817 96.8023 14.6078C97.1537 14.134 97.4411 13.8971 97.6646 13.8971C97.8882 13.8971 98 14.1748 98 14.7304C98 15.2859 97.8084 15.8578 97.4251 16.4461C97.0419 17.018 96.5548 17.549 95.964 18.0392C95.3891 18.5131 94.7424 18.9052 94.0238 19.2157C93.3212 19.5261 92.7064 19.6814 92.1794 19.6814C91.6524 19.6814 91.2452 19.5588 90.9578 19.3137C90.6863 19.0523 90.4548 18.7092 90.2632 18.2843Z" fill="white"/>
</svg>
